<svg viewBox="0 0 793.7 1122.5" xmlns="http://www.w3.org/2000/svg"><path d="m221.13 215.23c-25.866 0-46.903 21.037-46.903 46.903v359.64c0 25.818 21.037 46.808 46.903 46.808h359.64c25.818 0 46.808-20.989 46.808-46.808v-359.64c0-25.866-20.989-46.903-46.808-46.903z" fill="#fff"/><path d="m580.77 678.14c31.174 0 56.418-25.197 56.418-56.37v-359.64c0-31.174-25.244-56.466-56.418-56.466h-359.64c-31.173 0-56.466 25.292-56.466 56.466v359.64c0 31.173 25.293 56.37 56.466 56.37z" fill="#a2c437"/><path d="m524.92 326.48c-3.7293-18.551-15.587-25.962-33.42-33.373-17.834-7.4586-59.574-16.304-90.699-16.304-31.173 0-72.913 8.8452-90.747 16.304-17.834 7.4109-29.691 14.822-33.42 33.373l-13.387 102.89v141.76h23.093v22.232c0 27.062 39.684 27.062 39.684 0v-22.232h149.6v22.232c0 27.062 39.588 27.062 39.588 0v-22.232h23.045v-141.76l-13.34-102.89zm-186.37-26.966h124.41c12.24 0 12.24 23.189 0 23.189h-124.41c-12.192 0-12.192-23.189 0-23.189m-32.416 229.07c-11.523 0-20.894-9.3233-20.894-20.942 0-11.523 9.3711-20.894 20.894-20.894 11.57 0 20.942 9.3711 20.942 20.894 0 11.618-9.3711 20.942-20.942 20.942m189.29 0c-11.57 0-20.989-9.3233-20.989-20.942 0-11.523 9.4189-20.894 20.989-20.894 11.475 0 20.846 9.3711 20.846 20.894 0 11.618-9.3711 20.942-20.846 20.942m8.2236-88.356h-205.45c-5.9765 0-10.949-4.9724-10.949-10.949 0-1.0041.19125-1.9603.38248-2.8687l10.949-81.137c.90842-5.068 5.4027-8.9886 10.71-8.9886h183.22c5.3071 0 9.8014 3.9206 10.758 8.9886l10.901 81.137c.19122.90842.38251 1.8647.38251 2.8687 0 5.9765-4.9246 10.949-10.901 10.949"/></svg>