<svg height="194.823" viewBox="0 0 236.196 194.823" width="236.196" xmlns="http://www.w3.org/2000/svg"><path d="m232.436 182.036c0 4.985-4.041 9.026-9.026 9.026h-210.622c-4.985 0-9.027-4.041-9.027-9.026v-169.249c0-4.986 4.042-9.026 9.027-9.026h210.621c4.985 0 9.026 4.04 9.026 9.026v169.249z" fill="none" stroke="#000" stroke-width="7.5222"/><path d="m120.43 24.971h-77.573c-11.955 0-21.647 9.611-21.647 21.465v101.953c0 11.854 9.692 21.463 21.647 21.463h77.573c11.956 0 21.648-9.609 21.648-21.463v-101.953c0-11.854-9.692-21.465-21.648-21.465zm-50.895 129.842c-16.799 0-30.417-13.616-30.417-30.412 0-16.802 13.618-30.417 30.417-30.417 16.797 0 30.415 13.615 30.415 30.417-.001 16.795-13.618 30.412-30.415 30.412zm38.11-86.118c-9.31 0-16.857-7.547-16.857-16.856 0-9.311 7.547-16.856 16.857-16.856s16.857 7.546 16.857 16.856c-.001 9.309-7.547 16.856-16.857 16.856z"/><circle cx="107.645" cy="51.839001" r="9.528"/><circle cx="69.492" cy="124.31" r="20.978"/><path d="m148.371 50.320999h8.947v82.337997h-8.947z"/><path d="m164.03999 54.541h8.947v78.117996h-8.947z"/><path d="m214.988 79.89h-26.434v-13.549h-8.95v72.656h-31.246v9.061h31.246 8.695.255v-21.99h26.434z"/></svg>